HIERARCHY
ROOT root
{
	OFFSET 0.000000 0.000000 0.000000
	CHANNELS 6 Xposition Yposition Zposition Zrotation Yrotation Xrotation
	JOINT lhip
	{
		OFFSET 0.058581 -0.082280 -0.017664
		CHANNELS 3 Zrotation Yrotation Xrotation
		JOINT lknee
		{
			OFFSET 0.043451 -0.386469 0.008037
			CHANNELS 3 Zrotation Yrotation Xrotation
			JOINT lankle
			{
				OFFSET -0.014790 -0.426874 -0.037428
				CHANNELS 3 Zrotation Yrotation Xrotation
				JOINT ltoe
				{
					OFFSET 0.041054 -0.060286 0.122042
					CHANNELS 3 Zrotation Yrotation Xrotation
					End Site
					{
						OFFSET 0.000000 0.000000 0.000000
					}
				}
			}
		}
	}
	JOINT rhip
	{
		OFFSET -0.060310 -0.090513 -0.013543
		CHANNELS 3 Zrotation Yrotation Xrotation
		JOINT rknee
		{
			OFFSET -0.043257 -0.383688 -0.004843
			CHANNELS 3 Zrotation Yrotation Xrotation
			JOINT rankle
			{
				OFFSET 0.019056 -0.420046 -0.034562
				CHANNELS 3 Zrotation Yrotation Xrotation
				JOINT rtoe
				{
					OFFSET -0.034840 -0.062106 0.130323
					CHANNELS 3 Zrotation Yrotation Xrotation
					End Site
					{
						OFFSET 0.000000 0.000000 0.000000
					}
				}
			}
		}
	}
	JOINT lowerback
	{
		OFFSET 0.004439 0.124404 -0.038385
		CHANNELS 3 Zrotation Yrotation Xrotation
		JOINT upperback
		{
			OFFSET 0.004488 0.137956 0.026820
			CHANNELS 3 Zrotation Yrotation Xrotation
			JOINT chest
			{
				OFFSET -0.002265 0.056032 0.002855
				CHANNELS 3 Zrotation Yrotation Xrotation
				JOINT lowerneck
				{
					OFFSET -0.013390 0.211636 -0.033468
					CHANNELS 3 Zrotation Yrotation Xrotation
					JOINT upperneck
					{
						OFFSET 0.010113 0.088937 0.050410
						CHANNELS 3 Zrotation Yrotation Xrotation
						End Site
						{
							OFFSET 0.000000 0.000000 0.000000
						}
					}
				}
				JOINT lclavicle
				{
					OFFSET 0.071702 0.114000 -0.018898
					CHANNELS 3 Zrotation Yrotation Xrotation
					JOINT lshoulder
					{
						OFFSET 0.122921 0.045205 -0.019046
						CHANNELS 3 Zrotation Yrotation Xrotation
						JOINT lelbow
						{
							OFFSET 0.255332 -0.015649 -0.022946
							CHANNELS 3 Zrotation Yrotation Xrotation
							JOINT lwrist
							{
								OFFSET 0.265709 0.012698 -0.007375
								CHANNELS 3 Zrotation Yrotation Xrotation
								End Site
								{
									OFFSET 0.000000 0.000000 0.000000
								}
							}
						}
					}
				}
				JOINT rclavicle
				{
					OFFSET -0.082954 0.112472 -0.023707
					CHANNELS 3 Zrotation Yrotation Xrotation
					JOINT rshoulder
					{
						OFFSET -0.113228 0.046853 -0.008472
						CHANNELS 3 Zrotation Yrotation Xrotation
						JOINT relbow
						{
							OFFSET -0.260127 -0.014369 -0.031269
							CHANNELS 3 Zrotation Yrotation Xrotation
							JOINT rwrist
							{
								OFFSET -0.269108 0.006794 -0.006027
								CHANNELS 3 Zrotation Yrotation Xrotation
								End Site
								{
									OFFSET 0.000000 0.000000 0.000000
								}
							}
						}
					}
				}
			}
		}
	}
}
MOTION
Frames: 17
Frame Time: 0.033333
-1.131132 0.504138 0.984193 91.722447 0.397405 88.498647 -1.637439 1.274675 1.933390 -0.857020 -2.649812 -2.740335 5.079829 10.756290 -24.463679 0.000000 -0.000000 0.000000 3.077443 -1.295114 1.919300 -2.068010 2.730554 1.807052 -3.135655 -11.727554 -18.468616 0.000000 -0.000000 0.000000 1.390337 0.389540 3.865097 0.153660 -0.176984 -1.699814 0.738921 -1.436492 4.489380 1.507280 3.548569 -13.289411 -1.892946 -4.135483 6.893201 -23.135526 7.075957 1.675379 -53.313905 -0.109967 14.311031 -7.042168 -45.525344 28.735670 -0.025196 -12.908490 -12.050079 28.436423 0.121243 1.243937 49.517865 0.758546 18.073087 -3.022249 35.609933 9.545087 -1.133686 7.326782 -4.334185 
-1.129989 0.508469 0.982154 91.374673 -0.391443 88.750805 -2.327200 1.017705 1.808733 -1.086958 -2.376824 -2.357306 6.217433 11.036450 -24.665027 0.000000 -0.000000 0.000000 1.769668 -1.255311 2.144351 -1.670843 2.764402 1.821230 -1.909492 -11.383878 -17.686226 0.000000 -0.000000 0.000000 0.570160 0.735447 3.839999 0.357991 -0.298561 -1.383626 0.602131 -1.466795 4.383116 1.553596 3.430587 -13.357825 -1.866905 -4.182766 6.715215 -24.006064 6.970051 1.837139 -53.435139 -0.503771 14.262187 -6.407266 -45.114265 27.882470 -0.290927 -12.799167 -11.341350 28.534564 0.212124 1.445576 50.233354 0.799584 18.199926 -4.057222 35.983605 8.927998 -0.690191 7.145764 -4.640686 
-1.128682 0.510474 0.980279 91.123008 -0.584381 88.811140 -2.406361 1.011292 1.856770 -1.113788 -2.367193 -2.326320 6.471946 11.019625 -24.215097 0.000000 -0.000000 0.000000 1.372061 -1.383076 2.216152 -1.566146 2.816301 1.872334 -1.685390 -10.968106 -17.348869 0.000000 -0.000000 0.000000 0.454278 0.865913 4.124087 0.416838 -0.351656 -1.402746 0.559780 -1.406301 4.271887 1.516385 3.380395 -13.348764 -1.839354 -4.178778 6.610164 -24.385298 6.823509 1.852637 -53.700952 -0.676630 14.233473 -5.947028 -44.773912 27.349304 -0.393292 -12.804199 -11.044896 28.564795 0.392007 1.552509 50.662245 0.933453 18.143974 -4.624592 35.843335 8.534014 -0.533645 7.200242 -4.791429 
-1.127529 0.511695 0.978806 90.873893 -0.711349 88.843696 -2.436695 1.123237 1.953465 -1.190892 -2.365606 -2.372819 6.625762 10.971643 -23.748161 0.000000 -0.000000 0.000000 1.105073 -1.539953 2.126238 -1.488607 2.909135 2.175136 -1.576745 -10.585978 -17.333391 0.000000 -0.000000 0.000000 0.391883 0.963087 4.385463 0.468733 -0.388783 -1.476483 0.520110 -1.355217 4.213251 1.451002 3.439721 -13.398535 -1.825674 -4.170861 6.607908 -24.637479 6.652964 1.868476 -53.913713 -0.793124 14.191043 -5.612072 -44.508107 26.931384 -0.351126 -12.792314 -10.855176 28.650209 0.556523 1.696676 50.845249 1.098457 18.055249 -4.944587 35.713874 8.304498 -0.479055 7.279443 -4.754900 
-1.127032 0.511967 0.978457 90.831485 -0.768197 88.849762 -2.461213 1.211784 1.917812 -1.245714 -2.387261 -2.198980 6.652428 10.921635 -23.723251 0.000000 -0.000000 0.000000 1.027599 -1.605238 1.965501 -1.468597 2.942956 2.542278 -1.557816 -10.502466 -17.534938 0.000000 -0.000000 0.000000 0.341659 0.973940 4.472412 0.510811 -0.421620 -1.523685 0.498692 -1.349593 4.199381 1.434311 3.478511 -13.408232 -1.839611 -4.172560 6.625791 -24.730902 6.593647 1.876390 -53.922905 -0.802352 14.175020 -5.553219 -44.433554 26.833186 -0.310728 -12.766049 -10.784707 28.700826 0.583444 1.737769 50.860926 1.145276 17.990693 -5.034243 35.719050 8.145477 -0.460643 7.267417 -4.808994 
-1.126340 0.512177 0.978133 90.814046 -0.842436 88.854180 -2.500370 1.299542 1.738726 -1.323798 -2.415884 -1.688548 6.644252 10.868154 -23.803557 0.000000 -0.000000 0.000000 0.957167 -1.703288 1.634595 -1.452328 2.985401 3.228184 -1.557026 -10.454233 -17.910487 0.000000 -0.000000 0.000000 0.270057 0.973237 4.569927 0.575580 -0.473431 -1.599659 0.468760 -1.349088 4.199943 1.417215 3.525507 -13.433421 -1.857106 -4.176375 6.621024 -24.822881 6.550155 1.858671 -53.913150 -0.790057 14.163938 -5.524669 -44.361672 26.752931 -0.228157 -12.714087 -10.745912 28.743397 0.584551 1.752321 50.874137 1.169285 17.917948 -5.139153 35.767833 7.887300 -0.440174 7.206498 -4.962676 
-1.125366 0.512227 0.977952 90.796099 -0.924295 88.806113 -2.520903 1.328718 1.577682 -1.469710 -2.393601 -1.068510 6.655235 10.844806 -23.796595 0.000000 -0.000000 0.000000 0.924343 -1.727510 1.373184 -1.465387 3.036099 3.925506 -1.628788 -10.484396 -18.338074 0.000000 -0.000000 0.000000 0.168308 0.953674 4.657705 0.641232 -0.515372 -1.675449 0.456083 -1.361233 4.249369 1.402566 3.587093 -13.488305 -1.872760 -4.166421 6.655249 -24.887128 6.556215 1.841254 -53.913876 -0.790676 14.119709 -5.503589 -44.281289 26.726197 -0.095772 -12.692276 -10.760584 28.796443 0.578771 1.768061 50.851400 1.137112 17.977370 -5.164306 35.715736 8.063147 -0.511147 7.295034 -4.774432 
-1.124079 0.512112 0.977683 90.733941 -0.998647 88.691477 -2.511321 1.396839 1.488919 -1.652547 -2.303349 -0.489950 6.604891 10.818001 -23.763918 0.000000 -0.000000 0.000000 0.915351 -1.659863 1.246805 -1.461135 3.211451 4.568772 -1.744550 -10.434593 -19.052740 0.000000 -0.000000 0.000000 0.068294 0.941605 4.804502 0.708281 -0.550113 -1.773526 0.441022 -1.360189 4.302423 1.389644 3.672909 -13.523732 -1.883587 -4.159944 6.679771 -24.880135 6.566277 1.838871 -53.923721 -0.759652 14.064158 -5.518134 -44.246304 26.765552 0.054378 -12.696907 -10.849648 28.786666 0.563756 1.794643 50.880225 1.093856 18.023414 -5.124278 35.670973 8.334803 -0.601621 7.404532 -4.649490 
-1.122480 0.511762 0.977398 90.587146 -1.048090 88.516551 -2.422676 1.568037 1.379295 -1.909560 -2.138309 0.334064 6.459129 10.808291 -24.079501 0.000000 -0.000000 0.000000 0.910548 -1.671498 1.178831 -1.391503 3.483831 5.258860 -1.922000 -10.257443 -20.096069 0.000000 -0.000000 0.000000 -0.012875 0.971712 4.986965 0.781315 -0.582779 -1.855644 0.428136 -1.320586 4.348192 1.370353 3.761527 -13.521989 -1.865674 -4.165098 6.566477 -24.859286 6.572143 1.820862 -53.887853 -0.634810 13.977848 -5.580975 -44.313427 26.833592 0.255532 -12.663103 -10.988057 28.758988 0.558461 1.830717 50.867931 1.026176 17.954560 -4.993298 35.782886 8.461973 -0.632114 7.386518 -4.803547 
-1.120436 0.510940 0.977130 90.140544 -1.134130 88.267393 -2.213485 1.572545 0.566191 -2.512992 -1.565711 3.013579 6.388554 11.117435 -24.752267 0.000000 -0.000000 0.000000 0.777042 -1.628319 1.236706 -1.154377 3.928173 5.952593 -2.240714 -9.929601 -21.625066 0.000000 -0.000000 0.000000 -0.158458 1.205677 5.214715 0.871626 -0.561784 -1.937843 0.430236 -1.190565 4.489766 1.308892 3.828668 -13.646707 -1.793744 -4.232270 6.352574 -24.776309 6.566233 1.763208 -53.854537 -0.452128 13.823243 -5.647710 -44.498637 26.839533 0.550555 -12.580658 -11.444542 28.690111 0.592017 1.927378 50.762265 0.957400 17.855558 -4.724868 36.118077 8.715645 -0.707870 7.312810 -5.187110 
-1.119174 0.509894 0.977002 89.476613 -1.283636 88.668541 -1.768234 0.187889 -1.992842 -3.579376 0.804375 7.793126 6.003624 11.197777 -25.930140 0.000000 -0.000000 0.000000 0.618575 -0.710308 0.757001 -1.210238 2.921745 6.410845 -2.231294 -8.633395 -23.219521 0.000000 -0.000000 0.000000 -0.477266 1.818486 3.969996 1.443352 -0.736745 0.382181 -0.109288 -0.718463 2.659907 1.669086 4.296693 -11.791133 -1.745039 -4.884152 3.738328 -25.117791 6.831088 1.930307 -52.477981 -0.493873 16.012685 -4.964888 -44.787844 25.336264 1.019096 -14.799530 -13.949447 29.547708 -0.119450 2.742520 49.813873 1.700587 18.096721 -4.352090 35.811616 8.438423 -3.449498 10.686667 -5.317297 
-1.118050 0.509667 0.976527 88.817829 -1.293364 88.309144 -0.875305 -0.488889 -5.006209 -5.072293 2.360974 15.005447 6.100326 11.724187 -26.751252 0.000000 -0.000000 0.000000 0.213856 -0.752371 1.468795 -0.650311 3.314514 6.118716 -2.711244 -7.933107 -24.129637 0.000000 -0.000000 0.000000 -0.417684 2.579992 4.549608 1.636762 -0.780227 0.548378 -0.240433 -0.501333 2.289394 1.412363 4.093644 -11.519821 -1.538748 -4.946417 2.966172 -25.372418 6.643433 1.896788 -51.597842 -0.054019 16.111580 -5.307097 -45.398991 25.356875 1.218228 -14.518937 -14.614714 29.565857 -0.121781 3.031643 48.936879 1.568743 17.830398 -3.566013 36.821365 8.811709 -3.599685 10.445950 -6.375433 
-1.116620 0.509643 0.975133 87.915604 -1.204603 87.690911 0.426036 -0.320091 -8.131480 -6.693560 4.703182 22.627834 5.751781 12.039369 -26.624603 0.000000 -0.000000 0.000000 -0.306232 -1.206900 2.654118 0.041680 3.721972 5.371686 -3.020428 -6.940859 -24.815596 0.000000 -0.000000 0.000000 -0.192994 3.372832 5.722072 1.726506 -0.713581 0.458803 -0.237940 -0.128415 2.053685 0.996657 3.750552 -11.790413 -1.178450 -4.766952 2.373030 -25.706541 6.205654 1.744515 -50.863870 0.473874 15.787731 -5.870955 -45.821464 25.495529 1.649087 -14.188340 -14.909460 29.413689 0.299374 3.328909 47.809731 1.472654 17.406009 -2.352503 38.061491 9.831867 -3.642511 10.312899 -6.944005 
-1.114425 0.510019 0.974051 86.840800 -1.080180 87.019196 1.656020 0.811057 -10.978957 -7.612288 7.681653 29.105315 5.289360 11.813814 -25.439188 0.000000 -0.000000 0.000000 -0.796915 -1.910374 3.938734 0.521178 4.050403 4.453835 -3.183747 -5.691997 -24.697736 0.000000 -0.000000 0.000000 0.026544 4.076874 6.944252 1.749801 -0.543937 0.490030 -0.110327 0.312592 1.743077 0.655390 3.330876 -12.139171 -0.765567 -4.337244 1.690970 -26.280645 5.796185 1.492229 -50.250038 1.060138 15.265828 -6.118735 -45.884214 25.199789 1.779616 -13.916544 -14.703566 29.384383 0.961710 3.597120 46.343735 1.772056 16.926137 -0.838139 38.838654 11.126209 -3.276015 10.324207 -6.775095 
-1.110865 0.510754 0.973821 85.704990 -1.053409 86.739191 2.506395 1.779040 -13.347048 -8.391710 10.019794 32.995351 5.230262 11.088956 -24.916077 0.000000 -0.000000 0.000000 -1.161704 -2.471634 4.800819 0.601351 4.305357 3.595539 -3.184194 -4.694610 -23.790658 0.000000 -0.000000 0.000000 0.020456 4.682084 7.447220 1.714517 -0.302324 0.556388 0.063601 0.712039 1.507347 0.590883 2.970828 -12.406898 -0.401918 -3.878580 1.132804 -26.679179 5.728692 1.298633 -50.181240 1.608409 14.681208 -5.682471 -45.638609 24.222893 2.152258 -14.055824 -14.258866 29.218684 1.574889 3.712331 45.259328 2.547968 16.597185 0.442832 38.831357 12.345589 -2.460759 10.298416 -6.443657 
-1.106236 0.511865 0.974379 84.415595 -1.156339 86.931650 2.918855 2.096802 -15.062280 -9.488162 11.089432 33.737288 4.839388 10.081195 -25.153299 0.000000 -0.000000 0.000000 -1.498348 -2.787045 5.045919 0.430824 4.421228 2.961235 -2.858149 -3.976151 -22.447525 0.000000 -0.000000 0.000000 -0.153762 5.262953 7.480300 1.589622 0.077442 0.357184 0.172826 1.146451 1.287221 0.715276 2.883850 -12.825048 -0.194651 -3.724366 0.807299 -26.782809 6.121208 1.019989 -50.317948 2.270198 14.337753 -5.365738 -45.216349 23.507219 2.001127 -14.375720 -14.234907 29.003667 1.960678 3.675678 44.724911 3.652921 16.492647 0.993950 38.429894 13.020959 -1.696636 10.307098 -5.974974 
-1.100922 0.513511 0.975110 82.938952 -1.137756 87.300375 3.118356 2.027009 -16.014932 -9.867757 11.930087 32.097351 4.405379 9.723822 -24.816615 0.000000 -0.000000 0.000000 -1.657314 -2.972775 4.886027 0.217056 4.431239 2.733301 -2.570708 -3.524168 -21.022447 0.000000 -0.000000 0.000000 -0.134944 5.940086 7.352853 1.354332 0.810046 0.056187 0.249176 1.692359 1.088993 0.861079 2.906690 -13.594947 -0.217147 -3.966256 0.639040 -26.680371 6.748578 0.570833 -50.479708 2.987968 14.264267 -5.458016 -44.727845 23.535913 0.581051 -14.550333 -14.298034 28.747877 2.228439 3.626075 44.486045 4.800660 16.427467 0.904826 38.094666 12.717039 -1.198143 10.278589 -5.762141 
